<svg width="32" height="32" viewBox="0 0 32 32" fill="none" xmlns="http://www.w3.org/2000/svg">
<path d="M11.2992 23.1188L16.0001 20.288L20.7009 23.1521L19.4608 17.7932L23.5984 14.2051L18.1454 13.7222L16.0001 8.67437L13.8548 13.6889L8.40177 14.1718L12.5394 17.7795L11.2992 23.1188ZM16.0001 22.2512L10.4881 25.5777C10.328 25.6666 10.1661 25.7058 10.0022 25.6952C9.83843 25.6847 9.68987 25.6321 9.55653 25.5375C9.4232 25.443 9.32207 25.3189 9.25313 25.1653C9.18418 25.0118 9.1742 24.8413 9.2232 24.6538L10.677 18.3897L5.82237 14.1641C5.67537 14.0393 5.58292 13.8956 5.54503 13.7329C5.50714 13.5702 5.51498 13.4103 5.56853 13.253C5.6164 13.1015 5.70187 12.9754 5.82493 12.8748C5.948 12.7743 6.10554 12.7134 6.29757 12.6924L12.7155 12.1283L15.2103 6.20607C15.2867 6.03798 15.3974 5.9112 15.5424 5.82573C15.6874 5.74026 15.84 5.69753 16.0001 5.69753C16.1602 5.69753 16.3127 5.74026 16.4577 5.82573C16.6028 5.9112 16.7134 6.03798 16.7898 6.20607L19.2846 12.1283L25.7026 12.6924C25.8946 12.7134 26.0521 12.7743 26.1752 12.8748C26.2983 12.9754 26.3866 13.1015 26.4402 13.253C26.488 13.4103 26.493 13.5702 26.4551 13.7329C26.4172 13.8956 26.3248 14.0393 26.1778 14.1641L21.3231 18.3897L22.7855 24.6538C22.8288 24.8413 22.816 25.0118 22.747 25.1653C22.6781 25.3189 22.5769 25.443 22.4436 25.5375C22.3103 25.6321 22.1617 25.6847 21.9979 25.6952C21.8341 25.7058 21.6721 25.6666 21.512 25.5777L16.0001 22.2512Z" fill="#525252"/>
</svg>
