<svg width="80" height="80" viewBox="0 0 80 80" fill="none" xmlns="http://www.w3.org/2000/svg">
<rect width="80" height="80" rx="16" fill="#0090FE"/>
<path d="M13.7821 59V23.48H25.4461C33.2701 23.48 39.3181 26.216 39.3181 34.664C39.3181 42.776 33.2701 46.376 25.6381 46.376H20.8861V59H13.7821ZM20.8861 40.76H25.1581C30.0541 40.76 32.4061 38.696 32.4061 34.664C32.4061 30.488 29.8141 29.144 24.9181 29.144H20.8861V40.76ZM55.6088 59.672C50.8088 59.672 46.1048 57.848 42.6488 54.536L46.7288 49.64C49.2248 51.992 52.6328 53.528 55.7528 53.528C59.4488 53.528 61.3688 51.944 61.3688 49.496C61.3688 46.856 59.2088 45.992 56.0408 44.648L51.2888 42.632C47.7368 41.192 44.0888 38.264 44.0888 33.128C44.0888 27.32 49.2248 22.856 56.3768 22.856C60.5048 22.856 64.6328 24.488 67.5128 27.416L63.9608 31.88C61.6568 30.008 59.3048 28.952 56.3768 28.952C53.2568 28.952 51.2888 30.344 51.2888 32.648C51.2888 35.192 53.8328 36.152 56.8568 37.352L61.5128 39.272C65.7848 41.048 68.6168 43.832 68.6168 48.92C68.6168 54.728 63.7688 59.672 55.6088 59.672Z" fill="white"/>
</svg>
